  0
SECTION
  2
HEADER
  9
$ACADVER
  1
AC1009
  9
$INSBASE
 10
0.0
 20
0.0
 30
0.0
  9
$EXTMIN
 10
0.0
 20
0.0
 30
0.0
  9
$EXTMAX
 10
0.0
 20
0.0
 30
0.0
  0
ENDSEC
  0
SECTION
  2
TABLES
  0
TABLE
  2
VPORT
 70
0
  0
ENDTAB
  0
TABLE
  2
LTYPE
 70
1
  0
LTYPE
  2
CONTINUOUS
 70
0
  3
Solid line
 72
65
 73
0
 40
0.0
  0
ENDTAB
  0
TABLE
  2
LAYER
 70
1
  0
LAYER
  2
0
 70
64
 62
7
  6
continuous
  0
ENDTAB
  0
TABLE
  2
STYLE
 70
1
  0
STYLE
  2
STANDARD
 70
0
 40
0
 41
1.0
 50
0.0
 71
0
 42
1
 3
ARIAL.TTF
 4

  0
ENDTAB
  0
TABLE
  2
VIEW
 70
0
  0
ENDTAB
  0
ENDSEC
  0
SECTION
  2
BLOCKS
  0
BLOCK
  8
0
  2
FILLET
 70
0
 10
0.0
 20
0.0
 30
0.0
  3
FILLET
  0
LINE
  8
0
 62
0
 10
3.0
 20
45.0
 30
0.0
 11
44.2090094233
 21
45.0
 31
0.0
  0
ARC
  8
0
 62
0
 10
3.0
 20
42.0
 30
0.0
 40
3.0
 50
90.0
 51
-180.0
  0
LINE
  8
0
 62
0
 10
44.2090094233
 20
45.0
 30
0.0
 11
54.5916463207
 21
73.52606043
 31
0.0
  0
LINE
  8
0
 62
0
 10
0.0
 20
40.0
 30
0.0
 11
0.0
 21
42.0
 31
0.0
  0
ARC
  8
0
 62
0
 10
57.4107241831
 20
72.5
 30
0.0
 40
3.0
 50
90.0
 51
160.0
  0
ARC
  8
0
 62
0
 10
3.0
 20
40.0
 30
0.0
 40
3.0
 50
180.0
 51
-90.0
  0
LINE
  8
0
 62
0
 10
57.4107241831
 20
75.5
 30
0.0
 11
72.5892758169
 21
75.5
 31
0.0
  0
LINE
  8
0
 62
0
 10
123.5
 20
37.0
 30
0.0
 11
3.0
 21
37.0
 31
0.0
  0
ARC
  8
0
 62
0
 10
72.5892758169
 20
72.5
 30
0.0
 40
3.0
 50
20.0
 51
90.0
  0
LINE
  8
0
 62
0
 10
128.884584637
 20
19.134288524
 30
0.0
 11
123.5
 21
37.0
 31
0.0
  0
LINE
  8
0
 62
0
 10
75.4083536793
 20
73.52606043
 30
0.0
 11
85.7909905767
 21
45.0
 31
0.0
  0
ARC
  8
0
 62
0
 10
131.756960594
 20
20.0
 30
0.0
 40
3.0
 50
-163.227607194
 51
-90.0
  0
LINE
  8
0
 62
0
 10
85.7909905767
 20
45.0
 30
0.0
 11
179.209009423
 21
45.0
 31
0.0
  0
LINE
  8
0
 62
0
 10
133.243039406
 20
17.0
 30
0.0
 11
131.756960594
 21
17.0
 31
0.0
  0
LINE
  8
0
 62
0
 10
179.209009423
 20
45.0
 30
0.0
 11
189.591646321
 21
73.52606043
 31
0.0
  0
ARC
  8
0
 62
0
 10
133.243039406
 20
20.0
 30
0.0
 40
3.0
 50
-90.0
 51
-16.7723928061
  0
ARC
  8
0
 62
0
 10
192.410724183
 20
72.5
 30
0.0
 40
3.0
 50
90.0
 51
160.0
  0
LINE
  8
0
 62
0
 10
141.5
 20
37.0
 30
0.0
 11
136.115415363
 21
19.134288524
 31
0.0
  0
LINE
  8
0
 62
0
 10
192.410724183
 20
75.5
 30
0.0
 11
207.589275817
 21
75.5
 31
0.0
  0
LINE
  8
0
 62
0
 10
235.943650814
 20
37.0
 30
0.0
 11
141.5
 21
37.0
 31
0.0
  0
ARC
  8
0
 62
0
 10
207.589275817
 20
72.5
 30
0.0
 40
3.0
 50
20.0
 51
90.0
  0
ARC
  8
0
 62
0
 10
235.943650814
 20
34.0
 30
0.0
 40
3.0
 50
45.0
 51
90.0
  0
LINE
  8
0
 62
0
 10
210.408353679
 20
73.52606043
 30
0.0
 11
220.790990577
 21
45.0
 31
0.0
  0
LINE
  8
0
 62
0
 10
273.307611845
 20
0.87867965644
 30
0.0
 11
238.064971157
 21
36.1213203436
 31
0.0
  0
LINE
  8
0
 62
0
 10
220.790990577
 20
45.0
 30
0.0
 11
239.257359313
 21
45.0
 31
0.0
  0
ARC
  8
0
 62
0
 10
275.428932188
 20
3.0
 30
0.0
 40
3.0
 50
-135.0
 51
-90.0
  0
ARC
  8
0
 62
0
 10
239.257359313
 20
42.0
 30
0.0
 40
3.0
 50
45.0
 51
90.0
  0
LINE
  8
0
 62
0
 10
379.571067812
 20
2.58493941423e-26
 30
0.0
 11
275.428932188
 21
2.58493941423e-26
 31
0.0
  0
LINE
  8
0
 62
0
 10
241.378679656
 20
44.1213203436
 30
0.0
 11
276.621320344
 21
8.87867965644
 31
0.0
  0
ARC
  8
0
 62
0
 10
379.571067812
 20
3.0
 30
0.0
 40
3.0
 50
-90.0
 51
-45.0
  0
ARC
  8
0
 62
0
 10
278.742640687
 20
11.0
 30
0.0
 40
3.0
 50
-135.0
 51
-90.0
  0
LINE
  8
0
 62
0
 10
416.935028843
 20
36.1213203436
 30
0.0
 11
381.692388155
 21
0.87867965644
 31
0.0
  0
LINE
  8
0
 62
0
 10
278.742640687
 20
8.0
 30
0.0
 11
376.257359313
 21
8.0
 31
0.0
  0
ARC
  8
0
 62
0
 10
419.056349186
 20
34.0
 30
0.0
 40
3.0
 50
90.0
 51
135.0
  0
ARC
  8
0
 62
0
 10
376.257359313
 20
11.0
 30
0.0
 40
3.0
 50
-90.0
 51
-45.0
  0
LINE
  8
0
 62
0
 10
517.0
 20
37.0
 30
0.0
 11
419.056349186
 21
37.0
 31
0.0
  0
LINE
  8
0
 62
0
 10
378.378679656
 20
8.87867965644
 30
0.0
 11
413.621320344
 21
44.1213203436
 31
0.0
  0
ARC
  8
0
 62
0
 10
517.0
 20
40.0
 30
0.0
 40
3.0
 50
-90.0
 51
0.0
  0
ARC
  8
0
 62
0
 10
415.742640687
 20
42.0
 30
0.0
 40
3.0
 50
90.0
 51
135.0
  0
LINE
  8
0
 62
0
 10
520.0
 20
42.0
 30
0.0
 11
520.0
 21
40.0
 31
0.0
  0
LINE
  8
0
 62
0
 10
415.742640687
 20
45.0
 30
0.0
 11
434.209009423
 21
45.0
 31
0.0
  0
ARC
  8
0
 62
0
 10
517.0
 20
42.0
 30
0.0
 40
3.0
 50
-0.0
 51
90.0
  0
LINE
  8
0
 62
0
 10
434.209009423
 20
45.0
 30
0.0
 11
444.591646321
 21
73.52606043
 31
0.0
  0
LINE
  8
0
 62
0
 10
475.790990577
 20
45.0
 30
0.0
 11
517.0
 21
45.0
 31
0.0
  0
ARC
  8
0
 62
0
 10
447.410724183
 20
72.5
 30
0.0
 40
3.0
 50
90.0
 51
160.0
  0
LINE
  8
0
 62
0
 10
465.408353679
 20
73.52606043
 30
0.0
 11
475.790990577
 21
45.0
 31
0.0
  0
LINE
  8
0
 62
0
 10
447.410724183
 20
75.5
 30
0.0
 11
462.589275817
 21
75.5
 31
0.0
  0
ARC
  8
0
 62
0
 10
462.589275817
 20
72.5
 30
0.0
 40
3.0
 50
20.0
 51
90.0
  0
CIRCLE
  8
0
 62
0
 10
132.5
 20
21.0
 30
0.0
 40
1.5
  0
CIRCLE
  8
0
 62
0
 10
460.0
 20
65.0
 30
0.0
 40
1.5
  0
CIRCLE
  8
0
 62
0
 10
455.0
 20
65.0
 30
0.0
 40
1.5
  0
CIRCLE
  8
0
 62
0
 10
205.0
 20
65.0
 30
0.0
 40
1.5
  0
CIRCLE
  8
0
 62
0
 10
200.0
 20
65.0
 30
0.0
 40
1.5
  0
CIRCLE
  8
0
 62
0
 10
195.0
 20
65.0
 30
0.0
 40
1.5
  0
CIRCLE
  8
0
 62
0
 10
450.0
 20
65.0
 30
0.0
 40
1.5
  0
CIRCLE
  8
0
 62
0
 10
195.0
 20
70.0
 30
0.0
 40
1.5
  0
CIRCLE
  8
0
 62
0
 10
200.0
 20
70.0
 30
0.0
 40
1.5
  0
CIRCLE
  8
0
 62
0
 10
205.0
 20
70.0
 30
0.0
 40
1.5
  0
CIRCLE
  8
0
 62
0
 10
450.0
 20
70.0
 30
0.0
 40
1.5
  0
CIRCLE
  8
0
 62
0
 10
455.0
 20
70.0
 30
0.0
 40
1.5
  0
CIRCLE
  8
0
 62
0
 10
460.0
 20
70.0
 30
0.0
 40
1.5
  0
CIRCLE
  8
0
 62
0
 10
60.0
 20
65.0
 30
0.0
 40
1.5
  0
CIRCLE
  8
0
 62
0
 10
65.0
 20
65.0
 30
0.0
 40
1.5
  0
CIRCLE
  8
0
 62
0
 10
60.0
 20
70.0
 30
0.0
 40
1.5
  0
CIRCLE
  8
0
 62
0
 10
70.0
 20
65.0
 30
0.0
 40
1.5
  0
CIRCLE
  8
0
 62
0
 10
65.0
 20
70.0
 30
0.0
 40
1.5
  0
CIRCLE
  8
0
 62
0
 10
70.0
 20
70.0
 30
0.0
 40
1.5
  0
LINE
  8
0
 62
0
 10
189.187797761
 20
49.02606043
 30
0.0
 11
192.281544752
 21
57.52606043
 31
0.0
  0
ARC
  8
0
 62
0
 10
192.006875623
 20
48.0
 30
0.0
 40
3.0
 50
160.0
 51
-90.0
  0
ARC
  8
0
 62
0
 10
195.100622615
 20
56.5
 30
0.0
 40
3.0
 50
90.0
 51
160.0
  0
LINE
  8
0
 62
0
 10
207.993124377
 20
45.0
 30
0.0
 11
192.006875623
 21
45.0
 31
0.0
  0
LINE
  8
0
 62
0
 10
195.100622615
 20
59.5
 30
0.0
 11
204.899377385
 21
59.5
 31
0.0
  0
ARC
  8
0
 62
0
 10
207.993124377
 20
48.0
 30
0.0
 40
3.0
 50
-90.0
 51
20.0
  0
ARC
  8
0
 62
0
 10
204.899377385
 20
56.5
 30
0.0
 40
3.0
 50
20.0
 51
90.0
  0
LINE
  8
0
 62
0
 10
207.718455248
 20
57.52606043
 30
0.0
 11
210.812202239
 21
49.02606043
 31
0.0
  0
LINE
  8
0
 62
0
 10
54.187797761
 20
49.02606043
 30
0.0
 11
57.2815447523
 21
57.52606043
 31
0.0
  0
ARC
  8
0
 62
0
 10
57.0068756234
 20
48.0
 30
0.0
 40
3.0
 50
160.0
 51
-90.0
  0
ARC
  8
0
 62
0
 10
60.1006226146
 20
56.5
 30
0.0
 40
3.0
 50
90.0
 51
160.0
  0
LINE
  8
0
 62
0
 10
72.9931243766
 20
45.0
 30
0.0
 11
57.0068756234
 21
45.0
 31
0.0
  0
LINE
  8
0
 62
0
 10
60.1006226146
 20
59.5
 30
0.0
 11
69.8993773854
 21
59.5
 31
0.0
  0
ARC
  8
0
 62
0
 10
72.9931243766
 20
48.0
 30
0.0
 40
3.0
 50
-90.0
 51
20.0
  0
ARC
  8
0
 62
0
 10
69.8993773854
 20
56.5
 30
0.0
 40
3.0
 50
20.0
 51
90.0
  0
LINE
  8
0
 62
0
 10
72.7184552477
 20
57.52606043
 30
0.0
 11
75.812202239
 21
49.02606043
 31
0.0
  0
LINE
  8
0
 62
0
 10
444.187797761
 20
49.02606043
 30
0.0
 11
447.281544752
 21
57.52606043
 31
0.0
  0
ARC
  8
0
 62
0
 10
447.006875623
 20
48.0
 30
0.0
 40
3.0
 50
160.0
 51
-90.0
  0
ARC
  8
0
 62
0
 10
450.100622615
 20
56.5
 30
0.0
 40
3.0
 50
90.0
 51
160.0
  0
LINE
  8
0
 62
0
 10
462.993124377
 20
45.0
 30
0.0
 11
447.006875623
 21
45.0
 31
0.0
  0
LINE
  8
0
 62
0
 10
450.100622615
 20
59.5
 30
0.0
 11
459.899377385
 21
59.5
 31
0.0
  0
ARC
  8
0
 62
0
 10
462.993124377
 20
48.0
 30
0.0
 40
3.0
 50
-90.0
 51
20.0
  0
ARC
  8
0
 62
0
 10
459.899377385
 20
56.5
 30
0.0
 40
3.0
 50
20.0
 51
90.0
  0
LINE
  8
0
 62
0
 10
462.718455248
 20
57.52606043
 30
0.0
 11
465.812202239
 21
49.02606043
 31
0.0
  0
ENDBLK
  0
ENDSEC
  0
SECTION
  2
ENTITIES
  0
INSERT
  2
FILLET
  8
0
 62
0
 10
0.0
 20
0.0
 30
0.0
  0
ENDSEC
  0
EOF
